<?xml version="1.0" encoding="UTF-8" standalone="no"?>
<!-- Created with Inkscape (http://www.inkscape.org/) -->

<svg
   width="145.47099mm"
   height="189.30586mm"
   viewBox="0 0 145.47099 189.30586"
   version="1.1"
   id="svg8"
   sodipodi:docname="logo.svg"
   inkscape:version="1.3.2 (091e20ef0f, 2023-11-25, custom)"
   inkscape:export-filename="../../../../../../Bilder/logoBEAST.png"
   inkscape:export-xdpi="96"
   inkscape:export-ydpi="96"
   xmlns:inkscape="http://www.inkscape.org/namespaces/inkscape"
   xmlns:sodipodi="http://sodipodi.sourceforge.net/DTD/sodipodi-0.dtd"
   xmlns:xlink="http://www.w3.org/1999/xlink"
   xmlns="http://www.w3.org/2000/svg"
   xmlns:svg="http://www.w3.org/2000/svg"
   xmlns:rdf="http://www.w3.org/1999/02/22-rdf-syntax-ns#"
   xmlns:cc="http://creativecommons.org/ns#"
   xmlns:dc="http://purl.org/dc/elements/1.1/">
  <defs
     id="defs2">
    <linearGradient
       id="I">
      <stop
         id="c" />
      <stop
         stop-opacity="0"
         id="d"
         offset="1" />
    </linearGradient>
    <linearGradient
       id="J">
      <stop
         stop-color="#737373"
         id="e" />
      <stop
         stop-opacity="0"
         stop-color="#737373"
         id="f"
         offset="1" />
    </linearGradient>
    <linearGradient
       id="K">
      <stop
         stop-color="#555"
         id="g" />
      <stop
         stop-color="#bbb"
         id="h"
         offset="1" />
    </linearGradient>
    <linearGradient
       id="L">
      <stop
         stop-color="#afafaf"
         id="i" />
      <stop
         stop-color="#888"
         id="j"
         offset="1" />
    </linearGradient>
    <linearGradient
       id="M">
      <stop
         stop-color="#eee"
         id="k" />
      <stop
         stop-opacity="0"
         stop-color="#eee"
         id="l"
         offset="1" />
    </linearGradient>
    <linearGradient
       id="N">
      <stop
         stop-color="#8f6b32"
         id="m" />
      <stop
         stop-color="#80602c"
         id="n"
         offset="1" />
    </linearGradient>
    <linearGradient
       id="O">
      <stop
         stop-color="#ddd"
         id="o" />
      <stop
         stop-color="#c0c0c0"
         id="p"
         offset="1" />
    </linearGradient>
    <linearGradient
       id="P">
      <stop
         stop-opacity="0.6"
         stop-color="#eee"
         id="q" />
      <stop
         stop-opacity="0"
         stop-color="#eee"
         id="r"
         offset="1" />
    </linearGradient>
    <linearGradient
       id="Q">
      <stop
         stop-color="#fff"
         id="s" />
      <stop
         stop-opacity="0"
         stop-color="#fff"
         id="t"
         offset="1" />
    </linearGradient>
    <linearGradient
       y2="6037.5298"
       x2="2375.5"
       y1="6145.3101"
       x1="2482.96"
       gradientUnits="userSpaceOnUse"
       id="R"
       xlink:href="#I" />
    <radialGradient
       gradientUnits="userSpaceOnUse"
       gradientTransform="matrix(1.4952966,-0.03240257,0.02371273,1.0942826,-13.241932,-4.885029)"
       r="51.640999"
       cy="-3.3340001"
       cx="43.893002"
       id="S"
       xlink:href="#Q" />
    <radialGradient
       gradientUnits="userSpaceOnUse"
       gradientTransform="matrix(3.997274,-0.03923134,0.00832319,0.8480486,-269.48909,9.0424597)"
       r="30.466"
       cy="0.354"
       cx="98.889999"
       id="T"
       xlink:href="#P" />
    <radialGradient
       gradientTransform="matrix(2.1079797,-0.1619128,0.07658391,0.9970631,-93.372912,13.308219)"
       gradientUnits="userSpaceOnUse"
       r="16.827999"
       cy="50.450001"
       cx="78.947998"
       id="U"
       xlink:href="#O" />
    <radialGradient
       gradientUnits="userSpaceOnUse"
       gradientTransform="matrix(1,0,0,0.9922685,0,0.69856)"
       r="27.059999"
       cy="72.040001"
       cx="54.866001"
       id="V"
       xlink:href="#N" />
    <radialGradient
       gradientUnits="userSpaceOnUse"
       gradientTransform="matrix(1.8055164,-0.07880052,0.0433107,0.9923561,-51.269444,5.462792)"
       r="27.301001"
       cy="48.48"
       cx="57.877998"
       id="W"
       xlink:href="#M" />
    <radialGradient
       gradientUnits="userSpaceOnUse"
       gradientTransform="matrix(1,0,0,1.0947923,0,-5.7883482)"
       r="51.25"
       cy="17.830999"
       cx="47.279999"
       id="X"
       xlink:href="#L" />
    <filter
       id="Y"
       x="-0.094501622"
       y="-0.14298584"
       width="1.1890032"
       height="1.2859716">
      <feGaussianBlur
         id="u"
         stdDeviation="0.74616" />
    </filter>
    <linearGradient
       gradientUnits="userSpaceOnUse"
       y2="9.7670002"
       x2="90.540001"
       y1="-25.663"
       x1="93.629997"
       id="Z"
       xlink:href="#K" />
    <linearGradient
       gradientUnits="userSpaceOnUse"
       y2="32.457001"
       x2="68.835999"
       y1="-26.391001"
       x1="75.32"
       id="a"
       xlink:href="#J" />
    <radialGradient
       gradientUnits="userSpaceOnUse"
       gradientTransform="matrix(1,0,0,0.1818182,0,99.954538)"
       r="18.333"
       cy="122.17"
       cx="26.25"
       id="b"
       xlink:href="#I" />
  </defs>
  <sodipodi:namedview
     id="base"
     pagecolor="#ffffff"
     bordercolor="#666666"
     borderopacity="1.0"
     inkscape:pageopacity="0.0"
     inkscape:pageshadow="2"
     inkscape:zoom="0.35"
     inkscape:cx="-100"
     inkscape:cy="202.85714"
     inkscape:document-units="mm"
     inkscape:current-layer="layer1"
     showgrid="false"
     inkscape:window-width="1920"
     inkscape:window-height="1008"
     inkscape:window-x="0"
     inkscape:window-y="0"
     inkscape:window-maximized="1"
     showguides="true"
     units="mm"
     inkscape:showpageshadow="2"
     inkscape:pagecheckerboard="0"
     inkscape:deskcolor="#d1d1d1" />
  <metadata
     id="metadata5">
    <rdf:RDF>
      <cc:Work
         rdf:about="">
        <dc:format>image/svg+xml</dc:format>
        <dc:type
           rdf:resource="http://purl.org/dc/dcmitype/StillImage" />
      </cc:Work>
    </rdf:RDF>
  </metadata>
  <g
     inkscape:label="Ebene 1"
     inkscape:groupmode="layer"
     id="layer1"
     transform="translate(-78.469287,-95.567124)">
    <g
       transform="matrix(0.29354624,-0.07638413,-0.07638413,-0.29354624,110.07816,304.22339)"
       inkscape:label="ink_ext_XXXXXX"
       id="g4523">
      <g
         transform="scale(0.1)"
         id="g4525">
        <path
           inkscape:connector-curvature="0"
           id="path4527"
           style="fill:#100f0d;fill-opacity:1;fill-rule:nonzero;stroke:none"
           d="m 2283.38,6354.4 c 0,0 743.66,-419.15 1010.7,-780.84 0,0 -30.42,92.96 -89.58,165.63 0,0 290.72,-5.06 456.34,-253.52 0,0 5.08,52.39 -81.12,145.35 0,0 216.34,101.41 501.97,50.71 0,0 -67.61,67.61 -417.46,47.32 0,0 106.47,77.75 133.51,147.05 0,0 -96.33,-82.82 -153.79,-91.27 0,0 72.67,35.49 106.47,226.47 0,0 -92.96,-175.77 -211.27,-216.33 l 38.88,74.37 c 0,0 -45.64,-55.78 -72.68,-65.92 0,0 62.54,128.45 64.23,233.24 0,0 -98.03,-190.99 -141.97,-218.03 0,0 18.59,130.14 5.07,190.99 0,0 -20.29,-135.22 -62.54,-157.19 0,0 -13.52,280.57 -109.86,407.33 0,0 42.26,-299.16 -32.12,-360 0,0 -49.01,192.67 -125.06,280.56 0,0 57.47,-233.24 11.83,-267.04 0,0 -15.21,86.2 -60.85,145.35 0,0 21.98,-121.69 5.07,-131.83 0,0 -17.74,64.22 -45.62,87.04 0,0 29.15,-58.31 13.93,-88.73 0,0 -32.96,95.07 -134.36,177.46 0,0 54.51,-95.07 54.51,-119.15 0,0 -316.91,272.96 -664.23,370.98" />
        <path
           inkscape:connector-curvature="0"
           id="path4529"
           style="fill:#100f0d;fill-opacity:1;fill-rule:nonzero;stroke:none"
           d="m 1768.73,4340.6 c 0,0 -314.36,-283.94 -380.28,-446.2 0,0 58.31,197.75 154.65,278.88 0,0 -283.94,-180 -448.73,-600.85 0,0 98.87,367.61 182.53,469.02 0,0 -332.107,-428.45 -382.818,-891.55 0,0 27.047,314.37 104.789,540.84 0,0 -283.945,-550.99 -273.801,-861.97 0,0 6.762,361.69 47.325,510.42 0,0 -111.551,-368.45 -101.407,-550.98 0,0 -33.804,256.9 -20.285,375.21 0,0 -60.844,-236.63 -60.844,-398.87 l -37.183,236.62 c 0,0 -37.184,-98.04 -33.805,-199.44 0,0 -54.082,202.82 -54.082,480 0,0 -43.945,-290.71 -27.043,-429.3 0,0 -91.266,236.62 -64.226,554.37 l -70.985,-466.48 -10.14,442.82 c 0,0 -43.942,-236.62 -33.805,-341.41 0,0 -43.942,170.7 -26.195,294.93 0,0 -30.422,-81.13 -38.028,-187.61 0,0 -10.144,314.37 35.492,403.1 0,0 -45.636,-48.17 -76.054,-263.67 0,0 7.601,294.09 40.562,403.11 0,0 -70.988,-159.72 -83.664,-398.03 0,0 -14.3632,228.17 14.367,375.21 0,0 -50.7028,-116.62 -55.7731,-189.29 0,0 18.5898,238.31 49.0161,339.71 0,0 -47.3247,-92.96 -65.9185,-175.77 0,0 6.7618,344.79 91.2695,540.85 0,0 -101.414,-87.9 -131.832,-334.65 0,0 -27.0429,223.09 118.309,446.19 0,0 -96.3363,-108.17 -130.141,-196.05 0,0 113.238,307.6 211.266,415.77 0,0 -86.196,-70.99 -160.5629,-182.53 0,0 180.8439,324.5 277.1839,410.7 0,0 -98.028,-55.77 -170.703,-143.66 0,0 158.871,246.76 253.519,309.29 0,0 -87.887,-25.35 -158.871,-104.79 0,0 147.887,192.68 292.391,253.52 0,0 -119.153,-95.06 -134.364,-112.81 0,0 115.352,65.91 171.129,59.58 0,0 -86.199,-39.3 -201.55,-159.72 0,0 130.562,101.41 252.253,119.16 0,0 -183.804,-109.02 -224.367,-214.23 0,0 98.871,98.87 205.352,122.96 0,0 -160.985,-145.78 -182.535,-207.89 0,0 130.562,105.21 234.507,115.35 0,0 -225.632,-186.34 -245.918,-278.87 0,0 141.973,177.46 324.508,195.21 0,0 -150.843,-86.2 -174.925,-172.4 0,0 38.027,55.78 199.011,84.93 0,0 -235.777,-182.53 -256.058,-281.4 0,0 166.48,197.74 342.254,246.76 0,0 -138.594,-77.75 -189.297,-160.57 0,0 169.015,114.93 295.777,103.1 0,0 -234.93,-111.55 -285.633,-256.9 0,0 169.012,140.28 316.055,170.7 0,0 -155.496,-123.38 -177.461,-197.74 0,0 121.687,113.24 309.289,169.01 0,0 -280.559,-202.81 -334.641,-305.92 0,0 143.657,109.86 334.641,174.09 0,0 -385.352,-353.24 -469.012,-776.62 0,0 228.168,476.62 486.762,654.09 0,0 -139.44,-167.33 -169.859,-258.6 0,0 238.309,314.37 347.329,352.4 0,0 -136.91,-131.83 -159.73,-185.07 l 233.25,195.21 -98.88,-134.37 296.62,192.68 -177.46,-177.47 c 0,0 190.14,144.51 357.46,207.89" />
        <path
           inkscape:connector-curvature="0"
           id="path4531"
           style="fill:#100f0d;fill-opacity:1;fill-rule:nonzero;stroke:none"
           d="m 2405.07,4832.43 c 0,0 -207.89,-261.12 -78.59,-527.32 0,0 -258.59,256.05 78.59,527.32" />
        <path
           inkscape:connector-curvature="0"
           id="path4533"
           style="fill:#100f0d;fill-opacity:1;fill-rule:nonzero;stroke:none"
           d="m 2293.52,4221.45 c 0,0 -152.11,-297.47 -165.63,-561.13 0,0 -263.67,-189.3 -388.73,-378.59 0,0 175.77,517.18 344.79,757.18 0,0 -133.53,-270.42 -170.71,-376.9 0,0 194.37,393.8 380.28,559.44" />
        <path
           inkscape:connector-curvature="0"
           id="path4535"
           style="fill:#100f0d;fill-opacity:1;fill-rule:nonzero;stroke:none"
           d="m 2178.59,2497.51 c 0,0 410.71,-8.46 520.56,-177.47 0,0 -62.53,310.98 -520.56,177.47" />
        <path
           inkscape:connector-curvature="0"
           id="path4537"
           style="fill:#100f0d;fill-opacity:1;fill-rule:nonzero;stroke:none"
           d="m 2749.86,2433.28 c 0,0 326.2,-37.19 402.25,-248.45 0,0 -114.93,160.56 -358.31,143.65 0,0 1.69,45.64 -43.94,104.8" />
        <path
           inkscape:connector-curvature="0"
           id="path4539"
           style="fill:#100f0d;fill-opacity:1;fill-rule:nonzero;stroke:none"
           d="m 4035.22,3602.85 c -40.57,3.81 -53.25,-16.48 -53.25,-16.48 -15.21,19.02 -39.29,34.23 -39.29,34.23 24.08,-29.15 35.48,-57.04 35.48,-57.04 20.29,25.35 57.06,39.29 57.06,39.29" />
        <path
           inkscape:connector-curvature="0"
           id="path4541"
           style="fill:#100f0d;fill-opacity:1;fill-rule:nonzero;stroke:none"
           d="m 3679.01,3673.84 c 0,0 38.03,39.3 76.06,41.83 0,0 -43.1,6.34 -72.26,-17.74 0,0 -29.15,20.28 -53.23,25.35 0,0 40.56,-29.16 49.43,-49.44" />
        <path
           inkscape:connector-curvature="0"
           id="path4543"
           style="fill:#100f0d;fill-opacity:1;fill-rule:nonzero;stroke:none"
           d="m 3229.01,3763.84 c 0,0 39.3,-31.69 45.64,-49.44 0,0 59.58,49.44 96.34,51.97 0,0 -64.65,-5.06 -90,-29.15 0,0 -11.41,8.88 -51.98,26.62" />
        <path
           inkscape:connector-curvature="0"
           id="path4545"
           style="fill:#100f0d;fill-opacity:1;fill-rule:nonzero;stroke:none"
           d="m 2798.88,3575.81 c 0,0 -76.07,-326.19 -96.34,-461.41 0,0 101.41,283.95 96.34,461.41" />
        <path
           inkscape:connector-curvature="0"
           id="path4547"
           style="fill:#100f0d;fill-opacity:1;fill-rule:nonzero;stroke:none"
           d="m 2851.27,3780.32 c 0,0 55.77,-45.63 59.15,-67.61 0,0 40.57,40.57 96.34,70.99 0,0 -60.84,-15.21 -89.58,-43.94 0,0 -33.8,30.42 -65.91,40.56" />
        <path
           inkscape:connector-curvature="0"
           id="path4549"
           style="fill:#100f0d;fill-opacity:1;fill-rule:nonzero;stroke:none"
           d="m 3020.28,3391.59 c 43.95,27.04 174.09,70.99 174.09,70.99 -114.94,-3.39 -174.09,-70.99 -174.09,-70.99" />
        <path
           inkscape:connector-curvature="0"
           id="path4551"
           style="fill:#100f0d;fill-opacity:1;fill-rule:nonzero;stroke:none"
           d="m 2994.93,3628.21 c -62.54,-77.75 15.21,-185.92 15.21,-185.92 -27.04,47.33 -15.21,185.92 -15.21,185.92" />
        <path
           inkscape:connector-curvature="0"
           id="path4553"
           style="fill:#100f0d;fill-opacity:1;fill-rule:nonzero;stroke:none"
           d="m 3177.04,3685.25 c -63.89,84.21 -135.63,-12.67 -135.63,-12.67 70.98,50.7 135.63,12.67 135.63,12.67" />
        <path
           inkscape:connector-curvature="0"
           id="path4555"
           style="fill:#100f0d;fill-opacity:1;fill-rule:nonzero;stroke:none"
           d="m 4229.15,3427.93 c 0,0 -15.2,10.13 -41.83,6.34 l 8.88,-29.16 c 0,0 20.28,22.82 32.95,22.82" />
        <path
           inkscape:connector-curvature="0"
           id="path4557"
           style="fill:#100f0d;fill-opacity:1;fill-rule:nonzero;stroke:none"
           d="m 3889.01,2896.37 c -20.28,64.23 4.23,201.98 4.23,201.98 -54.93,-107.33 -4.23,-201.98 -4.23,-201.98" />
        <path
           inkscape:connector-curvature="0"
           id="path4559"
           style="fill:#100f0d;fill-opacity:1;fill-rule:nonzero;stroke:none"
           d="m 3561.12,3466.8 c -92.96,61.69 -234.08,12.68 -234.08,12.68 114.51,12.25 234.08,-12.68 234.08,-12.68" />
        <path
           inkscape:connector-curvature="0"
           id="path4561"
           style="fill:#100f0d;fill-opacity:1;fill-rule:nonzero;stroke:none"
           d="m 3563.66,3668.77 c 0,0 -58.31,129.29 -187.6,-2.53 0,0 110.28,81.12 187.6,2.53" />
        <path
           inkscape:connector-curvature="0"
           id="path4563"
           style="fill:#100f0d;fill-opacity:1;fill-rule:nonzero;stroke:none"
           d="m 4193.24,2710.46 c 163.94,238.31 111.55,496.9 111.55,496.9 5.07,-192.67 -111.55,-496.9 -111.55,-496.9" />
        <path
           inkscape:connector-curvature="0"
           id="path4565"
           style="fill:#100f0d;fill-opacity:1;fill-rule:nonzero;stroke:none"
           d="m 3679.01,3450.74 c 160.99,-11.41 229.44,-59.58 229.44,-59.58 -88.73,90 -229.44,59.58 -229.44,59.58" />
        <path
           inkscape:connector-curvature="0"
           id="path4567"
           style="fill:#100f0d;fill-opacity:1;fill-rule:nonzero;stroke:none"
           d="m 3993.38,3354.4 c 70.99,-64.65 92.54,-114.08 92.54,-114.08 -7.61,69.72 -92.54,114.08 -92.54,114.08" />
        <path
           inkscape:connector-curvature="0"
           id="path4569"
           style="fill:#100f0d;fill-opacity:1;fill-rule:nonzero;stroke:none"
           d="m 4008.59,3491.31 c 0,0 77.33,22.81 97.61,-31.69 0,0 -6.34,95.07 -97.61,31.69" />
        <path
           inkscape:connector-curvature="0"
           id="path4571"
           style="fill:#100f0d;fill-opacity:1;fill-rule:nonzero;stroke:none"
           d="m 3879.3,3582.58 c 0,0 -40.57,109.01 -162.26,24.08 0,0 129.3,34.22 162.26,-24.08" />
        <path
           inkscape:connector-curvature="0"
           id="path4573"
           style="fill:#100f0d;fill-opacity:1;fill-rule:nonzero;stroke:none"
           d="m 2290.14,3213.28 c -86.19,45.63 -172.4,200.28 -172.4,200.28 16.91,-153.81 172.4,-200.28 172.4,-200.28" />
        <path
           inkscape:connector-curvature="0"
           id="path4575"
           style="fill:#100f0d;fill-opacity:1;fill-rule:nonzero;stroke:none"
           d="m 2798.03,951.02 c -70.99,0 -168.6,49.44 -168.6,49.44 58.31,-73.519 168.6,-49.44 168.6,-49.44" />
        <path
           inkscape:connector-curvature="0"
           id="path4577"
           style="fill:#100f0d;fill-opacity:1;fill-rule:nonzero;stroke:none"
           d="m 2548.73,1037.22 c -59.15,3.38 -126.76,86.2 -126.76,86.2 35.49,-108.17 126.76,-86.2 126.76,-86.2" />
        <path
           inkscape:connector-curvature="0"
           id="path4579"
           style="fill:#100f0d;fill-opacity:1;fill-rule:nonzero;stroke:none"
           d="m 3481.69,962.859 -57.46,-98.039 c 135.2,136.91 196.05,261.97 196.05,261.97 -69.29,-82.81 -304.22,-285.618 -304.22,-285.618 64.22,25.348 165.63,121.687 165.63,121.687" />
        <path
           inkscape:connector-curvature="0"
           id="path4581"
           style="fill:#100f0d;fill-opacity:1;fill-rule:nonzero;stroke:none"
           d="m 2709.3,886.789 c -92.96,-13.508 -108.18,32.121 -108.18,32.121 11.84,-87.89 108.18,-32.121 108.18,-32.121" />
        <path
           inkscape:connector-curvature="0"
           id="path4583"
           style="fill:#100f0d;fill-opacity:1;fill-rule:nonzero;stroke:none"
           d="m 2447.32,971.309 c -89.58,-37.188 -123.37,27.043 -123.37,27.043 8.44,-98.032 123.37,-27.043 123.37,-27.043" />
        <path
           inkscape:connector-curvature="0"
           id="path4585"
           style="fill:#100f0d;fill-opacity:1;fill-rule:nonzero;stroke:none"
           d="m 3005.92,866.09 c -83.66,-60.84 -134.37,-1.27 -134.37,-1.27 26.61,-98.871 134.37,1.27 134.37,1.27" />
        <path
           inkscape:connector-curvature="0"
           id="path4587"
           style="fill:#100f0d;fill-opacity:1;fill-rule:nonzero;stroke:none"
           d="m 3299.15,952.711 c -47.32,-34.652 -121.69,-27.891 -121.69,-27.891 71.84,-36.332 121.69,27.891 121.69,27.891" />
        <path
           inkscape:connector-curvature="0"
           id="path4589"
           style="fill:#100f0d;fill-opacity:1;fill-rule:nonzero;stroke:none"
           d="m 3066.76,929.469 c -88.73,-20.27 -148.31,6.351 -148.31,6.351 62.12,-58.308 148.31,-6.351 148.31,-6.351" />
        <path
           inkscape:connector-curvature="0"
           id="path4591"
           style="fill:#100f0d;fill-opacity:1;fill-rule:nonzero;stroke:none"
           d="m 3229.01,874.121 c -68.44,-82.812 -112.39,-37.18 -112.39,-37.18 41.41,-87.043 112.39,37.18 112.39,37.18" />
        <path
           inkscape:connector-curvature="0"
           id="path4593"
           style="fill:#100f0d;fill-opacity:1;fill-rule:nonzero;stroke:none"
           d="m 4340.28,3009.62 c -25.35,-121.69 -133.52,-388.73 -263.66,-501.98 0,0 27.04,539.15 11.83,642.26 0,0 52.39,-190.99 30.43,-329.58 0,0 67.6,167.32 40.55,447.89 0,0 98.03,141.97 121.69,104.79 23.67,-37.19 89.58,-131.83 59.16,-363.38 z m -348.17,-177.47 c 0,0 -38.87,33.8 -77.74,133.52 0,0 15.21,-101.4 42.25,-135.21 0,0 -62.54,-27.04 -92.96,52.4 -23.66,79.43 -27.04,304.22 121.69,305.91 0,0 -57.46,-118.31 -21.97,-199.44 0,0 28.73,174.09 55.77,180.85 l 38.88,-37.6 c 0,0 -10.14,-139.87 16.9,-248.03 z m -102.25,-87.88 -63.38,78.59 3.38,39.72 -16.9,-30.43 -118.31,-1.69 -23.66,64.23 3.38,-81.13 141.97,1.69 54.08,-70.98 -69.3,-43.95 -65.9,81.12 -109.87,6.77 c -11.82,174.08 89.58,219.72 89.58,219.72 -33.81,-104.8 -6.77,-143.66 -6.77,-143.66 3.39,62.52 28.74,140.28 28.74,140.28 l 92.96,6.76 c 8.45,-135.22 16.06,-146.2 38.03,-178.31 23.66,-49.02 102.25,-15.22 102.25,-15.22 z m -335.49,-932.96 c 0,0 46.85,273.3 74.31,443.03 7.21,44.55 24.83,86.73 51.48,123.16 78.15,106.8 178.43,221.41 178.43,221.41 0,0 -179.16,-307.6 -304.22,-787.6 z m -6.76,677.74 -62.54,82.82 3.38,30.42 -15.21,-21.97 h -116.62 l -28.73,65.92 10.14,-81.13 104.78,-1.69 -13.51,-25.36 49.01,20.29 45.64,-69.3 -69.3,-38.87 -49.01,70.99 -118.32,11.83 c -25.35,184.22 86.21,206.2 86.21,206.2 -23.67,-116.62 -1.7,-104.8 -1.7,-104.8 0,45.64 20.28,104.8 20.28,104.8 l 52.39,-1.69 c -11.82,-30.43 6.77,-86.2 6.77,-86.2 l 118.31,-5.07 62.53,-81.13 z m 169.01,-1206.76 c 0,0 -1.69,-52.39 -59.16,-138.59 -52.39,-84.5 -190.98,-294.079 -253.51,-341.411 -18.6,-18.59 -91.27,-77.738 -150.42,28.731 0,0 118.3,98.031 79.43,163.949 l -52.39,-11.84 c 0,0 229.85,140.291 267.04,189.301 0,0 -98.03,-43.94 -138.6,-55.77 -42.25,-18.6 -136.9,-47.33 -162.25,-123.379 0,0 -1.69,109.849 148.73,145.349 81.13,25.35 282.25,108.16 321.13,143.66 z M 3300.84,733 c 11.84,-13.531 39.73,-20.289 39.73,-20.289 -81.14,-5.07 -109.02,21.98 -109.02,21.98 -87.89,-82.82 -185.07,5.911 -185.07,5.911 -169.86,-86.204 -271.26,35.488 -271.26,35.488 -195.22,-76.051 -309.3,70.992 -309.3,70.992 C 2230.14,811.59 2169.3,962.43 2169.3,962.43 c 0,0 -93.81,13.941 -141.98,32.961 -201.54,122.959 -130.56,291.549 -130.56,291.549 -36.76,-3.81 -83.66,15.21 -83.66,15.21 0,0 97.6,-5.07 149.58,50.71 0,0 -100.15,-182.12 36.76,-317.33 l -5.07,27.05 c 0,0 190.14,-35.5 299.15,30.42 0,0 -45.63,-130.141 18.59,-204.512 l -3.38,25.364 c 0,0 133.53,-21.981 234.93,54.078 0,0 3.38,-120.848 81.98,-165.219 l -2.54,24.93 c 0,0 79.44,-10.129 185.91,67.609 0,0 27.05,-116.621 120,-138.59 l -6.75,21.969 c 0,0 43.94,-8.449 135.2,72.68 0,0 47.33,-114.938 99.72,-92.957 40.56,20.277 82.82,52.386 82.82,52.386 0,0 47.32,-86.187 118.31,-55.769 C 3349.86,727.93 3300.84,733 3300.84,733 Z m -1516.46,623.98 c -19.06,48.19 -59.82,159.67 -87.48,295.45 l 94.65,52.39 -96.34,-33.8 -5.07,25.35 c 0,0 126.76,54.09 145.35,30.42 0,0 47.33,-64.21 13.52,-79.43 -27.04,-5.07 -86.19,-20.28 -86.19,-20.28 0,0 147.04,6.77 233.24,8.45 21.97,-5.07 42.25,-40.56 0,-177.47 -10.96,-34.41 -56.66,-109.38 -171.98,-124.36 -17.02,-2.21 -33.39,7.33 -39.7,23.28 z m -122.97,554.04 108.17,-87.89 -13.52,30.43 c 42.25,-11.83 101.41,11.83 101.41,11.83 l 10.14,-96.34 c -77.75,3.38 -180.85,-49.01 -180.85,-49.01 -10.14,28.73 -25.35,190.98 -25.35,190.98 z m 61.69,49.02 c 0,0 53.24,-87.89 73.52,-87.89 l -64.23,-10.14 -35.49,70.99 -36.34,1.69 z m -48.92,799.06 c 9.06,80.57 35.25,158.27 76.57,228.03 32.99,55.69 76.61,119.74 123.62,162.77 0,0 -163.95,-414.08 -229.86,-926.2 0,0 3.66,304.06 29.67,535.4 z m 353.99,566.57 c -11.83,87.89 162.25,202.82 182.53,223.1 64.43,28.08 156.31,-84.31 177.79,-147.79 0.97,-2.9 1.69,-5.86 2.2,-8.88 20.47,-119.49 -71.81,-211.78 -71.81,-211.78 -70.99,-13.53 -221.41,118.31 -221.41,118.31 37.18,-43.94 54.08,-65.92 54.08,-65.92 l -46.2,-39.4 c -7.91,-6.75 -19.01,-8.06 -28.46,-3.73 -69.64,31.92 -73.65,142.01 -73.65,142.01 35.49,-107.74 84.08,-117.47 84.08,-117.47 -27.04,28.74 -35.49,60.85 -59.15,111.55 z m 399.72,237.89 c 0,0 43.1,117.89 111.54,181.27 0,0 -88.73,-136.9 -86.19,-306.77 0,0 -49.44,82.4 -101.41,117.89 0,0 46.9,-64.64 65.91,-130.56 0,0 -74.78,121.69 -160.98,155.92 0,0 82.39,22.81 171.13,-17.75 z M 2598,3755.05 c 147.04,128.71 211.73,-28.64 242.49,-103.06 4.18,-10.1 7.04,-20.65 8.3,-31.52 20.58,-177.07 -83.31,-499.5 -144.56,-651.42 -63.39,-167.32 -86.2,-38.03 -109.01,65.92 -116.63,314.36 -119.16,508.73 -119.16,508.73 20.28,-155.49 111.55,-374.37 111.55,-374.37 0,0 -25.7,345.83 -28.22,498.37 -0.55,33.36 13.51,65.37 38.61,87.35 z m 631.86,-2242.9 -5.07,104.79 c 0,0 33.8,-81.12 59.16,-98.03 z m 109.86,-98.03 c -30.42,30.43 -85.35,-6.76 -85.35,-6.76 l -17.75,94.65 c 45.64,-23.66 111.54,3.38 111.54,3.38 10.15,-20.28 -8.44,-91.27 -8.44,-91.27 z m -74.78,-38.49 c -1.64,9.51 3.31,19.21 12.31,22.69 34.28,13.26 48.07,-14.09 54.02,-34.9 5.7,-41.07 -26.33,-47.48 -47.75,-47.32 -9.15,0.07 -15.94,7.98 -15.35,17.12 0.93,14.14 -1.22,30.74 -3.23,42.41 z M 3096.17,888.07 c 9.9,9.5 22.73,22.219 34.36,35.051 7.1,7.828 16.97,12.559 27.55,12.789 35.17,0.77 117.78,5.692 160.93,34.129 0,0 -59.58,-138.168 -166.05,-183.801 -7.85,-4.488 -45.49,4.922 -66.34,61.614 -5.17,14.039 -1.25,29.859 9.55,40.218 z m -240.6,38.93 19.25,18.082 c 9.67,9.09 22.87,13.398 36.04,11.688 34.89,-4.559 109.97,-12.891 199,-9.129 0,0 -10.14,-77.743 -169.02,-145.352 -28.66,-10.559 -78.88,-7.648 -100.15,72.449 -5,18.821 0.69,38.934 14.88,52.262 z m 155.42,39.238 c 0,0 -43.1,13.512 -129.3,22.813 0,0 76.05,22.819 129.3,-22.813 z m 154.65,0 c 0,0 -30.42,10.133 -82.4,3.801 0,0 57.04,21.551 82.4,-3.801 z M 2963.35,3621.61 c 26.32,29.07 69.51,74.75 100.88,97.87 72.41,76.55 144.83,-39.4 169.01,-84.63 5.56,-10.39 8.22,-22.03 7.7,-33.81 l -6.86,-155.37 c -0.11,13.39 -167.49,-44.42 -228.16,-81.13 -39,24.14 -56.22,136.65 -62.66,195.15 -2.49,22.61 4.83,45.06 20.09,61.92 z m -505.89,-2384.95 32.12,45.63 c 302.53,-199.43 638.87,-121.69 638.87,-121.69 -351.55,-45.63 -625.35,143.67 -625.35,143.67 0,0 72.67,120 99.71,185.91 64.23,185.91 -10.13,169.02 -38.86,163.94 -70.99,-42.25 -247.61,-133.94 -247.61,-133.94 -26.62,6.34 -38.03,124.22 -38.03,124.22 -8.87,-59.58 16.48,-135.63 16.48,-135.63 l -64.65,-15.21 c -41.83,87.46 -40.56,400.56 -27.89,524.79 25.36,177.47 -113.24,274.65 -113.24,274.65 197.75,-74.37 187.61,-392.11 187.61,-392.11 69.3,498.58 -270.42,515.48 -270.42,515.48 189.29,204.52 449.57,145.78 497.75,134.37 234.5,-98.87 254.78,-275.07 263.66,-423.38 -6.34,-235.77 27.88,-352.39 27.88,-352.39 -10.14,53.24 -2.53,250.98 -5.07,423.38 -10.14,197.74 -121.69,268.73 -121.69,268.73 230.7,17.74 375.22,-88.73 375.22,-88.73 215.48,-141.98 190.13,-446.2 167.32,-608.45 -50.7,-149.58 10.14,-310.15 23.66,-465.63 15.21,-165.64 -116.62,-207.9 -219.71,-224.8 -304.23,-28.73 -557.76,157.19 -557.76,157.19 z m 190.15,-206.2 c 70.13,34.65 125.92,-31.261 125.92,-31.261 -34.65,25.351 -125.92,31.261 -125.92,31.261 z m -76.16,-68.671 c 3.12,36.012 40.88,58.521 75.01,46.621 37.4,-13.051 104.91,-33.711 171.85,-39.64 12.68,-5.071 39.3,-13.95 -36.76,-64.649 -51.97,-34.223 -169.86,-95.07 -196.48,-11.41 -7.61,23.461 -15.53,47.219 -13.62,69.078 z m -133.42,204.731 c 0,0 63.38,-15.21 96.34,-78.59 0,0 -73.53,32.96 -96.34,78.59 z m -60.75,-28.54 c 16.15,11.04 37.97,8.33 51.44,-5.87 29.81,-31.42 87.46,-82.21 148.74,-82.21 0,0 35.5,-13.95 -15.2,-43.11 -45.64,-29.149 -200.29,-112.81 -252.26,-51.97 -14.01,26.86 -38.76,110.67 67.28,183.16 z m -332.21,257.55 c 0,0 365.07,120 485.07,212.96 33.81,18.59 94.65,74.37 59.16,-59.16 -32.12,-96.33 -133.53,-356.62 -348.17,-454.64 -39.21,-8.04 -110.11,-29.84 -172.87,-22 -63.86,7.98 -109.66,66.95 -103.44,131 2.59,26.66 7.09,54.01 10.66,73.45 3.02,16.39 14.84,29.65 30.77,34.58 58.53,18.06 205.76,68.8 309.24,149.72 0,0 -179.15,-72.67 -270.42,-65.91 z M 3223.1,1125.11 c -13.52,-18.59 10.14,-49.02 10.14,-49.02 0,0 -62.54,10.15 -18.59,72.68 32.11,50.7 47.32,76.05 45.63,147.05 0,0 131.83,10.13 170.71,15.2 11.82,-23.66 43.94,-113.24 -92.96,-167.32 0,0 45.63,42.25 52.39,98.03 0,0 -74.36,-86.2 -167.32,-116.62 z m 387.04,2317.18 c 0,0 -221.41,27.04 -292.4,10.14 0,0 -92.95,49.02 -15.2,180.85 0,0 162.25,179.15 248.45,77.74 49.01,-55.77 69.29,-59.15 69.29,-135.21 1.69,-76.05 -10.14,-133.52 -10.14,-133.52 z m 45.63,-721.69 h -118.31 l -32.11,64.22 11.83,-84.5 96.35,8.45 3.37,-35.49 11.83,20.28 27.04,6.76 54.09,-70.99 -69.29,-49.01 -47.33,54.08 v 27.04 c -25.35,11.84 -123.38,13.53 -123.38,13.53 -28.74,170.7 86.2,204.5 86.2,204.5 -30.42,-98.03 -6.76,-126.76 -6.76,-126.76 1.69,136.91 60.84,133.53 60.84,133.53 -13.52,-23.66 -5.07,-116.62 -5.07,-116.62 l 118.31,3.38 72.68,-89.58 -62.53,-57.47 -65.92,81.13 3.38,35.5 z m 280.57,802.82 -6.76,-162.26 c -92.96,64.23 -282.26,70.99 -282.26,70.99 l 11.7,105.31 c 3.7,33.23 20.86,63.65 47.64,83.67 172.92,129.3 229.68,-97.71 229.68,-97.71 z m 192.67,-147.05 c -6.75,-118.31 -45.63,-185.91 -45.63,-185.91 -15.22,64.23 -125.07,153.81 -125.07,153.81 4.36,22.88 5.21,76.68 5.26,112.02 0.02,22.08 11.32,42.63 29.93,54.52 140.96,90.15 143.43,-48.88 135.51,-134.44 z m -1210.13,398.88 c 192.67,131.83 358.3,-8.45 358.3,-8.45 309.3,106.48 395.5,-40.56 395.5,-40.56 196.05,49.01 310.98,-108.18 310.98,-108.18 229.87,23.67 227.75,-163.52 227.75,-163.52 93.81,2.54 115.35,-87.46 115.35,-87.46 -74.79,117.89 -177.46,-76.06 -177.46,-76.06 59.58,413.25 -187.61,225.64 -187.61,225.64 -92.96,310.98 -317.74,87.88 -317.74,87.88 -16.91,108.17 -133.53,157.19 -133.53,157.19 l 27.04,10.14 c -136.89,8.45 -278.87,-140.28 -278.87,-140.28 -30.43,109.86 -138.59,138.59 -138.59,138.59 l 37.18,25.35 c -160.56,-38.87 -275.49,-246.76 -275.49,-246.76 3.38,169.02 -104.79,255.21 -104.79,255.21 79.44,15.21 141.98,-28.73 141.98,-28.73 z m 891.96,905.07 c -19.01,35.49 -145.77,25.35 -145.77,25.35 l 20.9,20.9 c 25.03,25.03 54.48,45.53 87.4,58.55 123.1,48.69 130.86,-60.01 130.86,-60.01 -43.95,-5.07 -93.39,-44.79 -93.39,-44.79 z M 3616.9,4542.15 c -96.33,-31.69 -250.98,193.95 -250.98,193.95 159.72,12.67 239.57,-51.98 239.57,-51.98 -64.65,-10.14 -117.88,-50.7 -117.88,-50.7 95.07,44.37 275.07,21.55 275.07,21.55 0,0 -120.42,-100.14 -145.78,-112.82 z m 268.74,275.91 c 0,0 -91.27,32.12 -184.23,-47.32 0,0 89.58,125.07 184.23,47.32 z m -1854.09,417.47 c 24.75,37.78 47.49,63.01 66.1,79.75 25.54,22.97 59.42,34.84 93.7,32.51 227.27,-15.46 240.76,-328.6 240.76,-328.6 -77.74,106.48 -400.56,216.34 -400.56,216.34 z m 400.14,-48.17 c -78.59,205.35 -258.59,188.88 -258.59,188.88 219.29,50.7 258.59,-188.88 258.59,-188.88 z m 1982.96,-1807.6 c 54.08,62.53 57.46,118.3 49.01,226.48 -8.44,135.21 -210.42,381.97 -210.42,381.97 139.44,88.73 73.52,324.5 73.52,324.5 623.66,669.3 28.73,1250.71 28.73,1250.71 459.73,-797.75 -49.01,-1178.88 -49.01,-1178.88 -11.83,77.75 -110.28,180.43 -110.28,180.43 77.33,102.67 53.23,299.15 53.23,299.15 18.6,-37.18 25.79,-156.76 25.79,-156.76 91.26,507.04 -587.33,242.54 -587.33,242.54 133.52,174.08 184.22,464.79 184.22,464.79 -74.37,-207.89 -214.65,-422.54 -214.65,-422.54 33.81,65.91 43.95,300.85 43.95,300.85 -67.61,-327.89 -150.42,-361.69 -150.42,-361.69 -70.99,-72.68 -324.51,-15.21 -324.51,-15.21 l -23.67,32.11 6.77,10.14 c 140.28,99.71 128.45,414.08 128.45,414.08 -55.77,-314.37 -165.64,-385.35 -165.64,-385.35 l -37.17,21.97 c 30.42,446.2 -175.79,652.4 -175.79,652.4 158.88,-250.14 122.54,-626.2 122.54,-626.2 -53.24,40.56 -176.62,41.41 -176.62,41.41 0,0 -314.36,304.22 -561.12,500.28 -442.82,341.41 -798.59,168.17 -798.59,168.17 185.06,32.95 342.25,-21.13 342.25,-21.13 -392.11,5.07 -341.41,-385.35 -341.41,-385.35 -42.26,175.77 34.65,277.18 34.65,277.18 -86.2,-91.27 -63.39,-273.8 -63.39,-273.8 -119.15,15.21 -220.56,7.61 -220.56,7.61 304.23,-22.82 453.81,-114.09 453.81,-114.09 -207.89,45.63 -367.61,-25.35 -367.61,-25.35 420.84,45.63 851.83,-157.18 851.83,-157.18 -256.05,63.37 -621.13,17.74 -621.13,17.74 443.66,7.61 697.19,-70.98 697.19,-70.98 -425.92,-7.61 -732.68,-256.06 -732.68,-256.06 441.13,228.17 841.69,187.61 841.69,187.61 -314.37,-172.4 -268.73,-398.03 -268.73,-398.03 -240.85,-7.61 -583.1,-92.12 -583.1,-92.12 59.16,65.92 550.99,261.98 550.99,261.98 -155.49,-40.56 -581.41,-118.31 -581.41,-118.31 103.1,37.18 260.28,113.23 260.28,113.23 -199.44,-49.01 -513.8,-17.74 -513.8,-17.74 154.65,17.74 240.84,35.49 240.84,35.49 -294.08,-2.53 -345.63,43.1 -345.63,43.1 55.77,10.14 141.97,21.97 141.97,21.97 -143.66,-5.07 -305.91,87.89 -305.91,87.89 128.44,0 240,23.66 240,23.66 -197.75,1.69 -444.514,141.97 -427.612,147.05 16.902,5.06 72.676,8.45 72.676,8.45 l -118.309,37.18 53.242,16.05 c -311.832,50.71 45.629,522.26 45.629,522.26 -38.027,-27.89 -131.832,-121.69 -131.832,-121.69 81.129,177.46 235.778,392.95 235.778,392.95 L 782.535,5712.15 c 238.315,613.52 907.605,709.86 907.605,709.86 -841.687,-55.77 -1079.999,-917.74 -1079.999,-917.74 49.015,55.77 143.664,121.68 143.664,121.68 -101.41,-99.71 -187.61,-380.28 -187.61,-380.28 60.848,138.6 125.071,175.78 125.071,175.78 -128.45,-263.66 52.398,-353.24 52.398,-353.24 l -140.285,30.42 c 101.414,-47.32 218.027,-87.89 218.027,-87.89 -40.562,0 -213.797,47.32 -213.797,47.32 157.184,-101.4 283.094,-116.61 283.094,-116.61 l -182.535,-13.52 432.682,-141.98 c -37.19,-13.52 -304.229,33.81 -304.229,33.81 128.449,-60.85 381.969,-108.17 381.969,-108.17 l -162.25,-20.28 c 158.87,-67.61 381.97,-67.61 381.97,-67.61 l -209.58,-33.8 c 141.97,-87.89 388.74,-57.47 388.74,-57.47 -128.46,-50.7 -409.02,-294.08 -409.02,-294.08 283.94,182.53 726.76,202.81 726.76,202.81 -216.34,-125.06 -405.63,-517.18 -405.63,-517.18 57.46,87.89 209.58,253.52 209.58,253.52 -358.31,-635.49 -363.38,-1360.56 -363.38,-1360.56 136.9,1064.79 714.92,1592.11 714.92,1592.11 -169.85,-205.35 -294.08,-517.18 -294.08,-517.18 134.37,263.66 407.33,485.07 407.33,485.07 57.46,-84.51 85.77,-125.07 85.77,-125.07 -293.24,468.17 160.98,638.87 262.39,689.58 537.47,205.35 636.34,-55.78 727.61,-190.14 220.56,-332.12 408.17,-272.96 408.17,-272.96 l -77.75,20.28 c 59.16,10.14 184.23,104.79 184.23,104.79 192.67,179.16 365.06,-74.37 392.11,-118.31 206.2,-344.79 27.05,-451.27 27.05,-451.27 -20.29,32.11 -135.22,103.1 -135.22,103.1 135.22,131.83 2.53,274.65 2.53,274.65 l 32.96,53.24 c -65.91,-76.06 -291.54,-149.58 -347.32,-152.12 -210.42,-15.21 -425.91,129.3 -491.83,172.4 -65.92,43.1 -244.23,226.48 -311.84,297.47 -192.67,104.78 -361.69,-87.89 -392.11,-158.88 -94.64,-246.76 278.88,-265.35 278.88,-265.35 -82.82,-8.45 -163.94,-35.5 -163.94,-35.5 797.74,108.17 1318.31,-209.57 1318.31,-209.57 540.84,-341.41 378.59,-679.44 378.59,-679.44 -179.16,300.85 -753.81,422.53 -753.81,422.53 C 2793.8,4055.81 2300.28,3697.5 2300.28,3697.5 1387.61,3068.77 1279.44,1990.46 1279.44,1990.46 l 136.9,339.72 c -15.21,-314.36 25.35,-917.75 25.35,-917.75 -15.21,659.16 155.49,1291.27 155.49,1291.27 -67.6,-1101.97 179.16,-1480.57 297.47,-1656.34 334.65,-409.008 1162.81,-425.919 1162.81,-425.919 398.88,-32.113 419.16,145.348 419.16,145.348 L 3432.68,733 l 8.44,67.602 35.5,38.867 C 3658.61,471.41 3334.21,400.211 3199.75,386.441 3163.68,382.738 3127.65,378.66 3091.86,372.91 2469.49,272.852 1833.8,817.512 1833.8,817.512 2274.87,121.691 3172.39,296.941 3234.93,283.422 2416.9,50.1797 1884.51,459.199 1884.51,459.199 2100.85,144.82 2653.53,89.0508 2653.53,89.0508 1750.99,28.2109 1477.18,1169.05 1477.18,1169.05 c 17.75,-218.03 131.83,-522.261 131.83,-522.261 -78.59,68.461 -202.81,347.332 -202.81,347.332 0,-93.801 27.88,-256.062 27.88,-256.062 -60.84,50.711 -167.32,352.401 -167.32,352.401 43.1,-334.64 250.98,-522.249 250.98,-522.249 -35.49,86.187 -58.3,245.91 -58.3,245.91 91.26,-248.449 291.55,-415.769 291.55,-415.769 l -60.85,157.179 C 1923.38,180.32 2263.1,73.8516 2263.1,73.8516 3109.86,-205.031 3439.43,395.82 3439.43,395.82 c 286.49,139.43 72.68,487.602 72.68,487.602 74.37,87.887 207.89,314.358 228.17,365.068 20.29,65.91 -13.52,60.84 -13.52,60.84 l -172.39,-82.81 77.74,483.38 c 16.9,422.53 422.54,1112.11 422.54,1112.11 3.38,-81.12 -209.58,-550.99 -209.58,-550.99 60.85,33.8 185.92,250.15 185.92,250.15 -33.81,-229.86 -283.95,-589.86 -283.95,-589.86 99.72,54.08 226.49,267.04 226.49,267.04 -43.95,-143.66 -201.14,-383.66 -201.14,-383.66 131.84,82.82 300.85,400.56 300.85,400.56 13.52,-120 -147.04,-388.73 -147.04,-388.73 120,103.1 236.61,422.53 236.61,422.53 0,-70.99 -62.53,-218.03 -62.53,-218.03 76.06,81.13 106.48,302.54 106.48,302.54 28.73,-106.48 -70.99,-361.69 -70.99,-361.69 118.31,152.11 177.47,449.57 177.47,449.57 l 16.9,3.38 c 23.66,-114.92 -38.87,-304.22 -38.87,-304.22 96.34,131.83 100.14,387.04 100.14,387.04 15.21,-40.56 11.4,-116.62 11.4,-116.62 17.76,58.31 22.83,243.38 22.83,243.38 35.48,-60.84 17.74,-309.29 17.74,-309.29 81.12,192.67 23.66,434.36 23.66,434.36 45.64,-65.91 72.68,-219.72 72.68,-219.72 30.42,125.07 -48.17,348.18 -48.17,348.18 35.49,-34.23 90.42,-163.95 90.42,-163.95 -30.42,324.51 -167.32,655.78 -167.32,655.78" />
        <path
           inkscape:connector-curvature="0"
           id="path4595"
           style="fill:#100f0d;fill-opacity:1;fill-rule:nonzero;stroke:none"
           d="m 1739.58,1537.93 c 0,0 84.93,93.8 214.22,79.85 0,0 -95.07,-17.74 -214.22,-79.85" />
        <path
           inkscape:connector-curvature="0"
           id="path4597"
           style="fill:#100f0d;fill-opacity:1;fill-rule:nonzero;stroke:none"
           d="m 1996.9,1555.67 c 0,0 -44.37,-134.36 -159.72,-196.47 0,0 139.44,-10.15 159.72,196.47" />
        <path
           inkscape:connector-curvature="0"
           id="path4599"
           style="fill:#100f0d;fill-opacity:1;fill-rule:nonzero;stroke:none"
           d="m 2017.18,1196.94 c 0,0 187.61,20.28 329.58,136.91 0,0 -81.12,-111.56 -261.12,-187.61 0,0 82.39,53.23 92.53,69.71 0,0 -91.27,-24.08 -160.99,-19.01" />
        <path
           inkscape:connector-curvature="0"
           id="path4601"
           style="fill:#100f0d;fill-opacity:1;fill-rule:nonzero;stroke:none"
           d="m 2533.1,1478.35 c 0,0 -29.15,-149.58 -219.3,-299.15 0,0 174.93,192.67 219.3,299.15" />
        <path
           inkscape:connector-curvature="0"
           id="path4603"
           style="fill:#100f0d;fill-opacity:1;fill-rule:nonzero;stroke:none"
           d="m 2114.37,996.66 c 0,0 43.94,-3.379 101.41,16.9 0,0 0,-57.47 23.66,-79.439 0,0 -35.49,13.52 -38.88,54.09 0,0 -49.01,-6.77 -86.19,8.449" />
        <path
           inkscape:connector-curvature="0"
           id="path4605"
           style="fill:#100f0d;fill-opacity:1;fill-rule:nonzero;stroke:none"
           d="m 2433.8,886.789 c 0,0 49.01,3.391 69.3,16.91 0,0 27.04,-52.39 38.87,-62.527 0,0 -29.16,8.449 -41.83,37.598 0,0 -24.92,-11.829 -66.34,8.019" />
        <path
           inkscape:connector-curvature="0"
           id="path4607"
           style="fill:#100f0d;fill-opacity:1;fill-rule:nonzero;stroke:none"
           d="m 2720.7,795.109 c 0,0 34.23,16.481 64.65,31.68 0,0 20.29,-29.148 34.23,-39.277 0,0 -19.01,1.258 -38.03,26.609 0,0 -27.89,-15.211 -60.85,-19.012" />
        <path
           inkscape:connector-curvature="0"
           id="path4609"
           style="fill:#100f0d;fill-opacity:1;fill-rule:nonzero;stroke:none"
           d="m 3005.92,755.809 c 0,0 26.62,21.55 32.96,41.832 0,0 11.4,-21.551 30.42,-31.692 l -27.89,10.141 -35.49,-20.281" />
        <path
           inkscape:connector-curvature="0"
           id="path4611"
           style="fill:#100f0d;fill-opacity:1;fill-rule:nonzero;stroke:none"
           d="m 3210,753.281 c 0,0 11.41,3.801 19.01,24.078 0,0 8.45,-22.39 16.06,-24.929 l -16.06,10.351 -19.01,-9.5" />
      </g>
    </g>
  </g>
</svg>
